# xmcd
#
# Track frame offsets:
#	182
#	27330
#	43850
#	64830
#	90207
#	112395
#	127540
#	145407
#	165930
#
# Disc length: 2398 seconds
#
# Revision: 2
# Processed by: cddbd v1.5.2PL0 Copyright (c) Steve Scherf et al.
# Submitted via: audiograbber 1.83.01
#
DISCID=71095c09
DTITLE=Mahal, Taj - Live and direct
DYEAR=1979
DGENRE=Blues
TTITLE0=Jorge Ben
TTITLE1=Reggae 1
TTITLE2=You're gonna need somebody
TTITLE3=Little brown dog
TTITLE4=Take a giant step
TTITLE5=L-O-V-E, love
TTITLE6=And who
TTITLE7=Suva serenade
TTITLE8=Airplay
EXTD=
EXTT0=
EXTT1=
EXTT2=
EXTT3=
EXTT4=
EXTT5=
EXTT6=
EXTT7=
EXTT8=
PLAYORDER=
